<?xml version="1.0" encoding="UTF-8"?>
<svg version="1.1" xmlns="http://www.w3.org/2000/svg" width="1500" height="1256">
<path d="M0 0 C495 0 990 0 1500 0 C1500 414.48 1500 828.96 1500 1256 C1005 1256 510 1256 0 1256 C0 841.52 0 427.04 0 0 Z " fill="#FFFFFF" transform="translate(0,0)"/>
<path d="M0 0 C1.1507848 -0.00382555 2.3015696 -0.00765109 3.48722667 -0.01159257 C7.32842006 -0.0218794 11.16946277 -0.01793856 15.01066589 -0.01396179 C17.77081736 -0.01721856 20.53096054 -0.02343028 23.29110718 -0.02944946 C30.0016021 -0.04217306 36.71205697 -0.04399305 43.42256192 -0.0416492 C48.87991486 -0.03986312 54.33725567 -0.04162188 59.79460716 -0.04587364 C60.96155884 -0.04676643 60.96155884 -0.04676643 62.1520853 -0.04767724 C63.73275672 -0.04888905 65.31342814 -0.05010319 66.89409956 -0.05131962 C81.70489923 -0.06218632 96.51567612 -0.06003689 111.32647707 -0.05393478 C124.85873327 -0.04876738 138.39091744 -0.06001792 151.9231594 -0.07903299 C165.83622175 -0.09843247 179.74925007 -0.10666364 193.66232604 -0.10290974 C201.46614972 -0.10100077 209.26991213 -0.10345548 217.07372475 -0.11762428 C223.71789291 -0.12956603 230.36196209 -0.13091183 237.00613169 -0.11883412 C240.39200706 -0.11296465 243.7775541 -0.11343409 247.1634407 -0.12383652 C250.8439084 -0.13432606 254.52389495 -0.12618489 258.2043457 -0.11352539 C259.26049995 -0.12089968 260.31665419 -0.12827396 261.40481311 -0.13587171 C271.66041253 -0.06201302 281.24160786 2.14935779 290.35514832 6.88569641 C291.03069763 7.23342102 291.70624695 7.58114563 292.40226746 7.93940735 C310.44925093 17.55588672 319.16899022 33.32923746 328.77848816 50.56343079 C331.1340664 54.75956564 333.55748842 58.91555539 335.98014832 63.07319641 C339.28169521 68.75384208 342.53356403 74.45790728 345.73014832 80.19819641 C349.0373916 86.13490226 352.51165903 91.95472649 356.04264832 97.76069641 C360.55023136 105.18312542 364.76338594 112.72675657 368.85514832 120.38569641 C373.07958411 128.28861204 377.47457141 136.01462523 382.20793152 143.62251282 C385.60966637 149.10134807 388.85727829 154.65345321 392.04264832 160.26069641 C392.7751178 161.54979919 392.7751178 161.54979919 393.52238464 162.86494446 C394.55408306 164.68164161 395.58557014 166.49845881 396.61686707 168.31538391 C399.74147397 173.80711725 402.89074432 179.28459761 406.04264832 184.76069641 C406.64431824 185.80999329 407.24598816 186.85929016 407.8658905 187.94038391 C410.92561383 193.2534956 414.05036294 198.51135929 417.28874207 203.71772766 C421.28706907 210.1762665 424.96521618 216.78290391 428.60514832 223.44819641 C433.02595647 231.50348202 437.54821002 239.46604327 442.41764832 247.26069641 C453.6394136 265.37560139 459.53843174 284.64593918 455.59733582 306.03413391 C452.5482804 316.82112828 447.45809125 327.42889712 438.29264832 334.26069641 C434.83444119 335.33340913 431.614997 335.29706267 428.01554871 335.19721985 C427.01756256 335.20171646 426.01957642 335.20621307 424.99134827 335.21084595 C421.70647699 335.21713908 418.42479092 335.16806808 415.14030457 335.12007141 C412.8383393 335.11742971 410.536366 335.11890119 408.23440552 335.12428284 C402.17587519 335.13005613 396.11851398 335.09166207 390.06022644 335.04042053 C380.39793105 334.96290442 370.73573714 334.93897565 361.07316399 334.94051361 C357.72247085 334.93276151 354.37287031 334.89802429 351.0223999 334.86024475 C325.82695022 334.70877815 301.19787396 341.05536948 282.52311707 358.99897766 C281.78706238 359.74534485 281.05100769 360.49171204 280.29264832 361.26069641 C279.60815613 361.9348761 278.92366394 362.60905579 278.21842957 363.30366516 C271.99162031 369.82407642 267.70492353 377.4718991 263.29264832 385.26069641 C262.5871283 386.5027887 262.5871283 386.5027887 261.86735535 387.76997375 C259.74075142 391.51855206 257.61955483 395.27010953 255.50602722 399.02607727 C250.76134133 407.4569144 245.93636986 415.8395644 241.09098816 424.21284485 C237.81244744 429.88224987 234.54707414 435.55849299 231.31217957 441.25288391 C224.19991725 453.76703423 216.97630037 466.19494203 209.52629089 478.51289368 C205.47200996 485.23615731 201.5709488 492.02201792 197.80485535 498.91035461 C194.51255348 504.92168923 191.05230202 510.82450988 187.51408386 516.69429016 C187.12132263 517.35171204 186.7285614 518.00913391 186.32389832 518.68647766 C185.9790741 519.25793518 185.63424988 519.8293927 185.27897644 520.41816711 C184.09314165 522.63338869 183.21203111 524.92407134 182.29264832 527.26069641 C181.43646408 527.26656265 180.58027985 527.27242889 179.69815063 527.2784729 C171.56461956 527.3367709 163.43135234 527.4090541 155.29807949 527.49641132 C151.11831081 527.54082886 146.93863322 527.58014479 142.75871277 527.60713196 C138.71252504 527.6334546 134.66669346 527.67405215 130.62072945 527.72388268 C129.08970183 527.74035837 127.55861291 527.75199108 126.02750969 527.75831032 C104.57275634 527.85567414 84.85526504 532.52415128 68.48014832 547.32319641 C58.85457862 557.30412422 52.10722545 570.26840394 45.29264832 582.26069641 C37.73458073 582.36307638 30.17669541 582.43256854 22.61808777 582.48042297 C20.05291563 582.50039668 17.48778818 582.52758518 14.92277527 582.56245422 C-10.05540272 582.89322659 -29.81685456 580.40120703 -48.70735168 562.26069641 C-55.51883388 554.15983542 -60.8948069 545.28127533 -66.14485168 536.13569641 C-66.89267025 534.84570887 -67.64096713 533.5559985 -68.38972473 532.26655579 C-73.1329057 524.07989159 -77.77767537 515.84054249 -82.33625793 507.54975891 C-92.06524807 489.88233993 -102.35830688 472.52300151 -112.54670715 455.11860657 C-114.37211394 451.99990124 -116.19643097 448.88056333 -118.01985168 445.76069641 C-118.60573059 444.75828918 -119.1916095 443.75588196 -119.79524231 442.72309875 C-123.7615999 435.92153833 -127.64812941 429.08150334 -131.44953918 422.18647766 C-133.68775429 418.21679275 -136.10046361 414.35696452 -138.49841309 410.48242188 C-142.39422522 404.17409399 -146.15181242 397.7854368 -149.89485168 391.38569641 C-150.44169617 390.45208786 -150.44169617 390.45208786 -150.99958801 389.49961853 C-157.55509348 378.30324103 -163.98439335 367.03885912 -170.32746887 355.72065735 C-171.58784552 353.47374385 -172.85318326 351.22974589 -174.12141418 348.98725891 C-175.9316424 345.78575672 -177.73136386 342.57854491 -179.52571106 339.36811829 C-180.38312714 337.8389415 -181.24429735 336.31186774 -182.10774231 334.78608704 C-183.60670174 332.13589533 -185.0951638 329.48000836 -186.58235168 326.82319641 C-187.04721985 326.00633362 -187.51208801 325.18947083 -187.99104309 324.34785461 C-196.88401544 308.37078803 -198.48834767 289.09840449 -194.26985168 271.32319641 C-191.52421094 262.73475617 -187.20087325 255.03406018 -182.70735168 247.26069641 C-182.177547 246.34046692 -181.64774231 245.42023743 -181.10188293 244.47212219 C-177.56542354 238.34502422 -173.98867947 232.24221173 -170.40022278 226.14546204 C-167.96038911 221.9878222 -165.55230589 217.81213697 -163.14485168 213.63569641 C-159.29256286 206.96371285 -155.38683374 200.32497452 -151.45735168 193.69819641 C-145.92780502 184.37134023 -140.49435911 174.99133399 -135.08992004 165.59150696 C-131.60786697 159.5391198 -128.09026658 153.51127103 -124.51985168 147.51069641 C-120.74638308 141.16181004 -117.21104964 134.69929359 -113.70735168 128.19819641 C-110.24431144 121.77819352 -106.70204852 115.46785387 -102.76985168 109.32319641 C-96.30984268 99.22194945 -90.55073705 88.72626526 -84.70735168 78.26069641 C-83.49941333 76.10422512 -82.29107514 73.94797775 -81.08235168 71.79194641 C-79.87399092 69.63571178 -78.6656574 67.47946189 -77.45735168 65.32319641 C-76.86776672 64.27116028 -76.27818176 63.21912415 -75.67073059 62.13520813 C-73.13787961 57.61281943 -70.60866938 53.08881387 -68.10578918 48.54975891 C-56.30165598 27.20012527 -43.27106905 8.93349174 -18.78168851 1.69121772 C-12.48446154 0.16252981 -6.46006765 -0.02297104 0 0 Z " fill="#5DC4B1" transform="translate(590.7073516845703,336.7393035888672)"/>
<path d="M0 0 C0.82083177 -0.00297112 1.64166354 -0.00594224 2.487369 -0.0090034 C5.22994731 -0.01765488 7.97248178 -0.01919565 10.71507263 -0.02069092 C12.68498833 -0.02532169 14.65490313 -0.0303467 16.62481689 -0.03573608 C21.97227103 -0.04883907 27.31971262 -0.0553012 32.6671803 -0.05974674 C36.01181471 -0.06268149 39.35644572 -0.06678711 42.70107841 -0.07125092 C53.17637445 -0.0849217 63.65166268 -0.09458982 74.12696701 -0.09845281 C86.1987444 -0.10292953 98.27040833 -0.12046132 110.34215122 -0.1494534 C119.68592482 -0.1711108 129.02966659 -0.18115929 138.373465 -0.18249393 C143.94787934 -0.18353925 149.52218698 -0.18938867 155.09657478 -0.20731354 C160.34561267 -0.22386395 165.59446443 -0.22591601 170.84351921 -0.21717453 C172.76184973 -0.21640782 174.68019054 -0.22069817 176.59849548 -0.23063278 C195.34690443 -0.32197299 211.12167137 1.96803863 225.25584412 15.46075439 C241.14925807 32.90536555 251.65421137 57.20607087 262.69065857 77.91119385 C266.6229099 85.24964095 270.76129514 92.42200201 275.09104919 99.53179932 C284.73620735 115.37389608 293.82021339 131.55399913 302.9125824 147.71759033 C306.69891764 154.42734487 310.57956105 161.07654595 314.50975037 167.70294189 C315.32391418 169.07893555 315.32391418 169.07893555 316.15452576 170.48272705 C318.47305454 174.39905012 320.79861107 178.3103934 323.15037537 182.20684814 C331.78991495 196.68010456 336.18801266 211.88922534 332.82225037 228.76544189 C328.14589533 245.18606756 317.2928623 260.07224705 308.59178162 274.61700439 C300.44057162 288.24379118 292.58733923 302.04508257 284.72459412 315.83966064 C282.74764159 319.30647203 280.76054793 322.76711059 278.76365662 326.22247314 C273.2409198 335.79834183 267.89729501 345.447698 262.69725037 355.20294189 C257.13798166 365.6183729 251.24864361 375.76689521 245.08787537 385.83526611 C243.69732897 388.14031159 242.3472398 390.46441715 241.00975037 392.80059814 C236.45917368 400.74739619 231.93527489 408.36332883 225.69725037 415.14044189 C225.13264099 415.75919189 224.56803162 416.37794189 223.98631287 417.01544189 C219.79745081 421.11284408 214.99120737 423.792591 209.82225037 426.45294189 C209.17449646 426.7908374 208.52674255 427.12873291 207.85935974 427.47686768 C196.62515776 432.9851966 184.81634199 432.43332443 172.60838318 432.4151001 C170.6789073 432.41945273 168.74943316 432.42463771 166.81996155 432.43058777 C161.60075227 432.44393135 156.38161562 432.44456149 151.16239262 432.44202447 C146.79399754 432.44095136 142.42561695 432.44584693 138.05722499 432.45062989 C127.74386295 432.46170956 117.43053734 432.4621715 107.11717224 432.45611572 C96.5051188 432.45007998 85.89319807 432.46238038 75.28116727 432.48368579 C66.14620665 432.50134616 57.01128811 432.50729607 47.87631106 432.50404805 C42.43104106 432.50224173 36.98586569 432.50480584 31.54061127 432.51876259 C26.41544132 432.53140825 21.29047697 432.52933351 16.16530991 432.5163517 C14.29416456 432.51400078 12.42300444 432.51666674 10.55187607 432.52497482 C-7.99067636 432.60131009 -23.83314899 430.80624471 -37.89649963 417.56622314 C-41.53320641 413.89999765 -44.96730116 410.08148855 -48.30274963 406.14044189 C-44.38007096 395.75116917 -38.37113217 386.15923594 -32.61524963 376.70294189 C-9.35944759 339.00856985 -9.35944759 339.00856985 -8.80274963 295.95294189 C-11.09851763 287.43679103 -15.0250689 279.81007182 -19.30274963 272.14044189 C-19.75746643 271.3238208 -20.21218323 270.50719971 -20.68067932 269.66583252 C-26.19413991 259.82063096 -31.90373514 250.09115753 -37.65382385 240.38287354 C-40.62376669 235.34871932 -43.48123296 230.25903997 -46.30274963 225.14044189 C-50.74688132 217.08773081 -55.31775726 209.12075401 -60.0483551 201.23272705 C-60.89197009 199.82560746 -61.73208471 198.41638394 -62.56886292 197.00518799 C-67.76222202 188.27099304 -73.03433218 180.33327788 -80.30274963 173.14044189 C-81.0362262 172.37344971 -81.76970276 171.60645752 -82.52540588 170.81622314 C-92.65625345 160.85450492 -105.41204329 155.42384568 -119.30274963 153.14044189 C-117.05942003 147.26395128 -114.03683367 141.85484434 -111.05274963 136.32794189 C-110.43230774 135.17592285 -109.81186584 134.02390381 -109.17262268 132.8369751 C-104.42269059 124.05693457 -99.43044629 115.43407967 -94.34913635 106.84136963 C-90.59139371 100.45194012 -87.0616992 93.98472651 -83.67774963 87.39044189 C-79.69053691 79.62821083 -75.4034518 72.12118195 -70.8596344 64.67218018 C-67.15862017 58.60096104 -63.6123759 52.45605202 -60.11524963 46.26544189 C-48.51461846 25.85072483 -37.97176988 8.4093542 -14.30274963 1.14044189 C-9.52218694 0.15641228 -4.86196995 -0.00554589 0 0 Z " fill="#FFA500" transform="translate(938.3027496337891,710.8595581054688)"/>
<path d="M0 0 C14.19626711 -0.02348045 28.39253116 -0.0409862 42.58881378 -0.05181217 C49.1821002 -0.05701047 55.77537348 -0.0640521 62.36865234 -0.07543945 C68.74235664 -0.08637755 75.11604838 -0.09229979 81.48976135 -0.09487724 C83.91036679 -0.09671194 86.33097162 -0.10029425 88.75157166 -0.10573006 C136.43017366 -0.20845218 136.43017366 -0.20845218 150 12 C155.65325656 17.71226044 159.63340167 24.02684843 163.5625 31 C164.79529576 33.15120052 166.02837651 35.30223775 167.26171875 37.453125 C167.88353027 38.54431641 168.5053418 39.63550781 169.14599609 40.75976562 C171.45773662 44.79998425 173.80865535 48.81638946 176.16357422 52.83154297 C181.81923244 62.47601349 187.39709666 72.16398617 192.9375 81.875 C193.61512868 83.06218836 194.2927817 84.24936283 194.97045898 85.43652344 C195.64697422 86.6217439 196.3234879 87.80696525 197 88.9921875 C197.33423477 89.57774414 197.66846954 90.16330078 198.01283264 90.76660156 C199.64039034 93.61797904 201.26778353 96.46944937 202.89453125 99.32128906 C204.73827752 102.54978582 206.58646378 105.77567774 208.4375 109 C209.34000488 110.57394531 209.34000488 110.57394531 210.26074219 112.1796875 C213.61210518 117.98659221 217.04442256 123.73266933 220.578125 129.4296875 C220.96303604 130.05280823 221.34794708 130.67592896 221.74452209 131.31793213 C223.60330473 134.32619516 225.47297006 137.32626537 227.36694336 140.3125 C232.71744025 148.93341726 237.612007 158.08334921 237.5 168.5 C237.51546875 169.93859375 237.51546875 169.93859375 237.53125 171.40625 C235.95592601 182.06285347 231.09760634 191.02330182 225.6875 200.1875 C224.97462074 201.41400335 224.26255965 202.64098257 223.55126953 203.8684082 C218.3066935 212.8906215 212.92075958 221.82870088 207.51757812 230.7565918 C202.46826791 239.13100874 197.66906326 247.63095986 192.921875 256.17944336 C189.26602865 262.75882173 185.5321726 269.27990332 181.6862793 275.74975586 C178.91654032 280.41657634 176.21718543 285.11935457 173.54296875 289.84155273 C171.04902333 294.2394992 168.53100617 298.62329047 166 303 C165.33436035 304.15290527 165.33436035 304.15290527 164.65527344 305.32910156 C157.05372092 318.37103739 148.91515553 329.84844103 134 335 C125.43496003 337.0936125 117.0226327 337.28664213 108.24804688 337.25878906 C106.79630865 337.26150534 105.34457181 337.26506981 103.89283752 337.26940918 C99.9816831 337.27845985 96.07063522 337.27501943 92.15947914 337.26865101 C88.04735676 337.26355281 83.9352429 337.268293 79.82312012 337.27142334 C72.92031229 337.27505192 66.01754739 337.27029307 59.11474609 337.26074219 C51.15820293 337.24985978 43.2017623 337.25338614 35.24522161 337.264395 C28.38797557 337.27349955 21.53076022 337.27473771 14.67351007 337.26951766 C10.58932473 337.26641532 6.50518742 337.26594048 2.42100525 337.27259064 C-1.42045402 337.27840977 -5.26178234 337.27428455 -9.10322762 337.26280212 C-10.50476426 337.26017978 -11.90631212 337.26087859 -13.30784416 337.26532745 C-34.87181154 337.3274154 -34.87181154 337.3274154 -41.9375 332.1875 C-42.62714844 331.70667969 -43.31679687 331.22585938 -44.02734375 330.73046875 C-46.34294984 328.69915489 -48.14106762 326.44946571 -50 324 C-49.26910156 322.7934375 -49.26910156 322.7934375 -48.5234375 321.5625 C-37.97421496 304.09178418 -27.796924 286.40097473 -17.60913086 268.71801758 C-13.4053581 261.42520358 -9.18105449 254.14473483 -4.9375 246.875 C-4.36676758 245.89708496 -3.79603516 244.91916992 -3.20800781 243.91162109 C-0.26444326 238.87062119 2.68400055 233.83251844 5.63671875 228.796875 C11.37537259 218.9996439 17.05461942 209.18299994 22.52441406 199.23291016 C25.08525569 194.59230987 27.74832555 190.02972579 30.5 185.5 C42.1443842 166.2038134 51.537792 148.852896 53 126 C53.05929687 125.11183594 53.11859375 124.22367188 53.1796875 123.30859375 C54.11671316 92.54291781 37.46206903 67.31153604 22.36328125 41.73828125 C14.72164268 28.7678064 7.58263612 15.53787428 1 2 C0.505 1.01 0.505 1.01 0 0 Z " fill="#FFA500" transform="translate(1258,806)"/>
<path d="M0 0 C1.93563383 -0.00135175 3.87126733 -0.00329649 5.80690002 -0.00579834 C9.84013133 -0.00872635 13.87327332 -0.00452797 17.90649414 0.00488281 C23.03090511 0.01626813 28.15510626 0.0097087 33.27950954 -0.00226212 C37.26993845 -0.00955054 41.26031908 -0.00716092 45.25074959 -0.00200653 C47.1382557 -0.00068885 49.02576645 -0.00225029 50.91326714 -0.00696564 C86.63459357 -0.07664803 86.63459357 -0.07664803 98.19140625 10.140625 C105.76608604 18.37165878 110.66276793 29.24227318 115.7722168 39.10107422 C119.3778165 45.9666454 123.33686992 52.61201305 127.31640625 59.265625 C132.79415007 68.42852296 138.16573537 77.63650045 143.37890625 86.953125 C143.95084717 87.97341797 144.52278809 88.99371094 145.11206055 90.04492188 C152.43837405 103.19950969 158.30651422 114.69250934 155 130.21875 C151.64390951 140.06328209 145.75741886 148.89898978 140.4609375 157.78515625 C136.64739226 164.19280476 132.99872071 170.68457268 129.37890625 177.203125 C125.05026446 184.97997647 120.67096357 192.71579652 116.10449219 200.35571289 C114.11606747 203.69178384 112.19184085 207.04382521 110.3671875 210.47265625 C104.59829137 221.27113611 97.9943008 233.28169956 85.62890625 237.265625 C78.48932724 238.93080001 71.58024379 239.55771047 64.26733398 239.52441406 C63.29667999 239.5279187 62.326026 239.53142334 61.32595825 239.53503418 C58.15473021 239.54375276 54.98372984 239.53803796 51.8125 239.53125 C49.58773252 239.53259938 47.36296533 239.53454218 45.13819885 239.53704834 C40.49094822 239.53998614 35.84377481 239.53574491 31.1965332 239.52636719 C25.25981984 239.51496687 19.32328723 239.52154445 13.38658047 239.53351212 C8.79761916 239.54076137 4.20870025 239.53842883 -0.38026237 239.53325653 C-2.56858276 239.53192886 -4.75690707 239.5335366 -6.94522285 239.53821564 C-10.00989008 239.54333218 -13.07427002 239.53549927 -16.13891602 239.52441406 C-17.47570152 239.53048676 -17.47570152 239.53048676 -18.8394928 239.53668213 C-30.34704051 239.46012191 -40.19250824 237.38350128 -48.80859375 229.453125 C-53.87330934 224.10464776 -57.40313425 218.07066875 -60.99267578 211.70117188 C-62.54627552 208.95609377 -64.12692963 206.22764287 -65.7109375 203.5 C-71.01156555 194.36381992 -76.26766797 185.20221653 -81.5078125 176.03125 C-82.01970879 175.13540695 -82.01970879 175.13540695 -82.54194641 174.22146606 C-84.24475624 171.24052196 -85.94570909 168.25853789 -87.64379883 165.27490234 C-90.62127722 160.04933402 -93.61149674 154.83467834 -96.68359375 149.6640625 C-110.14298047 126.99436469 -110.14298047 126.99436469 -108.37109375 114.265625 C-105.47443361 104.67074019 -100.73920768 96.11031647 -95.68359375 87.515625 C-94.96517 86.27797812 -94.24756845 85.03985364 -93.53076172 83.80126953 C-91.49016953 80.28188938 -89.43298485 76.77257079 -87.37109375 73.265625 C-86.85756348 72.39196289 -86.3440332 71.51830078 -85.81494141 70.61816406 C-84.1509068 67.79127415 -82.48562501 64.96518363 -80.81103516 62.14453125 C-78.39189738 58.05607664 -76.06644567 53.92581323 -73.78637695 49.75830078 C-50.55831257 7.32978628 -50.55831257 7.32978628 -35.37109375 2.265625 C-23.66974626 -0.0953886 -11.88409841 -0.02965177 0 0 Z " fill="#FFA500" transform="translate(735.37109375,903.734375)"/>
<path d="M0 0 C3.7522301 2.95602518 5.73605072 5.68351055 6.640625 10.33984375 C7.17028447 20.31974317 2.89396137 27.49723172 -1.8359375 35.88671875 C-2.64025805 37.36076061 -3.44231642 38.83603895 -4.2421875 40.3125 C-8.68942895 48.47138896 -13.34308661 56.50183144 -18.08544922 64.49194336 C-21.09301945 69.57521855 -23.98635367 74.71343995 -26.8359375 79.88671875 C-29.96423892 85.5616776 -33.15453928 91.18862288 -36.4609375 96.76171875 C-40.89462952 104.23738888 -45.21869999 111.77381434 -49.5234375 119.32421875 C-70.67295412 156.40349682 -70.67295412 156.40349682 -78.43334961 169.14892578 C-81.88687568 174.87227453 -85.09726946 180.72749954 -88.3359375 186.57421875 C-93.85791267 196.53287285 -99.65414575 206.2875673 -105.62109375 215.98269653 C-110.27024682 223.53952305 -114.68161062 231.1708845 -118.8359375 239.01171875 C-123.15766265 247.0746508 -127.8582319 255.67564455 -136.3359375 260.01171875 C-141.93973664 261.41266853 -146.58963769 261.66428407 -152.0859375 259.76171875 C-156.20938954 256.95027418 -159.05844026 254.46330845 -160.5078125 249.66015625 C-162.26802954 238.57078891 -155.96559092 228.7591792 -150.5859375 219.51171875 C-150.05097656 218.57328125 -149.51601563 217.63484375 -148.96484375 216.66796875 C-146.03092477 211.55277509 -142.99572593 206.51354508 -139.87890625 201.5078125 C-136.15498913 195.48889208 -132.73041706 189.34080959 -129.36740112 183.11465454 C-123.60726365 172.47116283 -117.60584809 162.01214651 -111.2734375 151.69921875 C-103.8123959 139.54529134 -96.61270977 127.25723827 -89.54101562 114.87207031 C-87.94049038 112.06977611 -86.33456568 109.27066435 -84.7265625 106.47265625 C-79.40849269 97.20768373 -74.16394408 87.90426826 -68.9609375 78.57421875 C-63.73139358 69.20116149 -58.38918234 59.90108569 -52.95458984 50.64550781 C-49.61737454 44.95863009 -46.33268285 39.24678121 -43.09716797 33.50146484 C-25.53301503 2.38539036 -25.53301503 2.38539036 -14.3984375 -2.67578125 C-9.17674247 -3.31704204 -4.56235995 -2.76653741 0 0 Z " fill="#5DC4B1" transform="translate(1079.8359375,9.11328125)"/>
<path d="M0 0 C5.3035228 2.70179463 9.09832298 6.29496895 11 12 C12.12919596 23.85655761 5.74548318 33.94698796 0.1875 44.0625 C-0.37090576 45.08633789 -0.92931152 46.11017578 -1.50463867 47.16503906 C-6.42265612 56.10492292 -11.60208113 64.88150491 -16.83837891 73.63769531 C-21.72102429 81.80770093 -26.48590887 90.03710932 -31.1875 98.3125 C-36.55164316 107.75105054 -42.00149775 117.13141593 -47.55053711 126.46240234 C-50.68865725 131.74926514 -53.75790607 137.06672098 -56.75 142.4375 C-59.76187844 147.84145987 -62.87371997 153.16978928 -66.07446289 158.46508789 C-76.40816942 175.59688623 -86.4485045 192.89580679 -96.17797852 210.37719727 C-100.56847465 218.25821097 -105.06707418 226.06435177 -109.69335938 233.80908203 C-111.18204077 236.30523802 -112.66106196 238.80702298 -114.140625 241.30859375 C-115.21835176 243.12263249 -116.29647095 244.93643815 -117.375 246.75 C-118.12547607 248.02000854 -118.12547607 248.02000854 -118.89111328 249.31567383 C-126.59029452 262.20445189 -126.59029452 262.20445189 -134 265 C-139.28851734 265.92063165 -143.53816818 264.97455455 -148 262 C-152.34190468 257.59942093 -154.23637621 254.23010349 -154.625 248.0625 C-154.37682083 231.69922021 -142.89540279 217.21843855 -134.58105469 203.75830078 C-129.80336908 196.02051319 -125.21730271 188.20872035 -120.8125 180.25 C-114.05734727 168.05697809 -107.062609 156.01703104 -100 144 C-97.18626232 139.20905981 -94.37395038 134.41728275 -91.5625 129.625 C-91.20493622 129.01553528 -90.84737244 128.40607056 -90.47897339 127.77813721 C-80.11841077 110.11387291 -69.88573889 92.37933022 -59.83837891 74.53491211 C-55.42814544 66.71909556 -50.9245668 58.96022944 -46.3840332 51.21948242 C-43.24384605 45.86264129 -40.13164623 40.49160447 -37.0625 35.09375 C-36.39839256 33.92937615 -35.73416798 32.76506911 -35.06982422 31.60083008 C-33.8161622 29.40054779 -32.56740712 27.19745883 -31.32470703 24.9909668 C-15.93556544 -1.96465875 -15.93556544 -1.96465875 0 0 Z " fill="#5DC4B1" transform="translate(510,985)"/>
<path d="M0 0 C14.4666574 10.37825422 22.37419982 30.07182716 30.88208008 45.21801758 C34.77363428 52.14216117 38.73781789 59.02010591 42.75 65.875 C53.26094516 83.8370374 63.63694865 101.87554708 73.94503784 119.95458984 C79.25946929 129.2726555 84.64311239 138.54862688 90.06518555 147.80444336 C93.72531126 154.06163383 97.30557279 160.3572124 100.83032227 166.69140625 C103.03576081 170.63326042 105.34968942 174.48458535 107.75 178.3125 C111.66759718 184.59000164 115.19971588 191.0513567 118.73339844 197.55102539 C121.54021125 202.6940971 124.44110059 207.7531895 127.5 212.75 C130.80084252 218.15969347 133.89472413 223.65706726 136.875 229.25 C137.26123535 229.96953857 137.6474707 230.68907715 138.04541016 231.43041992 C141.39651664 237.79388468 142.54768139 242.91214592 141.875 250.0625 C140.05073094 255.33261062 137.30248314 257.90001204 132.875 261.0625 C130.9375 261.875 130.9375 261.875 128.875 262.0625 C127.8025 262.165625 126.73 262.26875 125.625 262.375 C119.35612908 261.85259409 115.14698754 259.63428678 110.9609375 254.97265625 C107.62999043 250.95578778 105.09456093 246.61092623 102.5625 242.0625 C101.60002664 240.36527915 100.63647222 238.66867093 99.671875 236.97265625 C98.96321289 235.72186279 98.96321289 235.72186279 98.24023438 234.44580078 C96.32104655 231.09545895 94.32095535 227.7972965 92.3125 224.5 C88.70579025 218.54597782 85.3128858 212.49014416 81.95898438 206.39086914 C77.75820577 198.78377216 73.36505045 191.2926073 68.97119141 183.79589844 C65.78271462 178.34996278 62.62796595 172.89103461 59.5625 167.375 C55.38371237 159.87167425 51.03653268 152.46786078 46.6875 145.0625 C46.13394836 144.11984283 46.13394836 144.11984283 45.56921387 143.15814209 C43.71043763 139.99328357 41.85093081 136.82885487 39.99121094 133.66455078 C31.47276574 119.1679704 23.04006419 104.62608367 14.72549438 90.01174927 C9.94497014 81.61424421 5.05129209 73.29508072 0.04174805 65.03222656 C-3.68003982 58.8691147 -7.2194889 52.61870478 -10.67358398 46.30200195 C-13.02742022 42.00115944 -15.49271577 37.80224341 -18.0625 33.625 C-22.65267179 25.73904136 -25.32864106 18.3647545 -22.9921875 9.29296875 C-21.39655041 5.18887515 -19.07975218 2.25752707 -15.265625 -0.07421875 C-10.4007768 -2.03613746 -4.93012134 -1.4790364 0 0 Z " fill="#5DC4B1" transform="translate(379.125,7.9375)"/>
<path d="M0 0 C1.1176698 -0.00453111 2.23533961 -0.00906223 3.38687819 -0.01373065 C7.13383052 -0.02639581 10.88063788 -0.02475288 14.62760925 -0.02310181 C17.31337016 -0.02908572 19.99911971 -0.03583433 22.68487549 -0.04345703 C29.22432092 -0.06005472 35.7637303 -0.06556602 42.30319504 -0.06668179 C47.62000925 -0.06763284 52.9368116 -0.07174599 58.25362206 -0.07808304 C73.33507101 -0.09569204 88.41649152 -0.10492244 103.49795083 -0.10342209 C104.71697062 -0.10330222 104.71697062 -0.10330222 105.96061707 -0.10317993 C107.18112903 -0.10305729 107.18112903 -0.10305729 108.42629781 -0.10293217 C121.61159934 -0.10211935 134.79678662 -0.12125685 147.98205511 -0.14945666 C161.52775531 -0.17819824 175.0733998 -0.19199626 188.61913127 -0.19026911 C196.22116115 -0.18960565 203.82307124 -0.19507856 211.42507362 -0.21662521 C217.89777725 -0.2348538 224.3703068 -0.23917066 230.84302501 -0.22560637 C234.14348132 -0.21908504 237.44353518 -0.22111094 240.74397278 -0.23631287 C244.32725289 -0.25174761 247.90965865 -0.24246751 251.49291992 -0.22705078 C252.52873146 -0.23733791 253.56454301 -0.24762503 254.63174278 -0.25822389 C261.63746274 -0.19170405 268.20810158 0.86151599 273.56020099 5.75011313 C277.29607484 10.03705454 278.25124683 13.56852258 278.14787292 19.21273804 C277.65688225 23.99535086 275.47969484 26.73672744 272.12443542 30.01742554 C265.62736136 34.60359546 259.62996572 34.55617378 251.94979858 34.52812195 C250.84029589 34.5319475 249.73079319 34.53577304 248.58766919 34.53971452 C244.86834978 34.55003668 241.14918496 34.54605377 237.42985535 34.54208374 C234.76379891 34.54643067 232.09775382 34.55154929 229.43170166 34.55757141 C222.94037842 34.57031557 216.44909656 34.57211241 209.95776292 34.56977115 C204.68004153 34.56798729 199.40233269 34.56973908 194.12461281 34.57399559 C193.373126 34.57459078 192.62163919 34.57518597 191.84738005 34.57579919 C190.32065683 34.57701096 188.79393361 34.5782251 187.2672104 34.57944157 C172.95152958 34.59031629 158.63587232 34.5881551 144.32019017 34.58205672 C131.2319059 34.57688923 118.1436961 34.58813869 105.05542656 34.60715494 C91.60916855 34.62654118 78.16294575 34.63478786 64.71667367 34.63103169 C57.17055932 34.62912063 49.62450832 34.63159779 42.07840538 34.64574623 C35.65329843 34.65767112 29.22829381 34.65905264 22.80318543 34.64695606 C19.52709573 34.64107471 16.25123136 34.6415804 12.97514725 34.65195847 C9.41826614 34.6624128 5.86188633 34.65433504 2.30502319 34.64164734 C1.27699355 34.64902162 0.2489639 34.65639591 -0.81021816 34.66399366 C-8.25351451 34.60821714 -14.57913807 33.46381399 -20.93806458 29.45492554 C-24.4831641 25.80555838 -26.21516287 22.34570788 -26.43806458 17.26742554 C-26.18491852 11.72985563 -24.20375028 8.38276267 -20.25056458 4.51742554 C-13.73413178 -0.08240938 -7.70362616 -0.02288692 0 0 Z " fill="#5DC4B1" transform="translate(27.063064575195313,610.7325744628906)"/>
<path d="M0 0 C1.10063003 -0.00453111 2.20126006 -0.00906223 3.33524251 -0.01373065 C7.02458338 -0.02639442 10.713777 -0.02475297 14.40313721 -0.02310181 C17.04786732 -0.02908584 19.69258589 -0.03583452 22.33731079 -0.04345703 C28.77682743 -0.06005432 35.21630746 -0.06556602 41.6558437 -0.06668179 C46.89208113 -0.06763294 52.12830649 -0.07174661 57.3645401 -0.07808304 C72.21957337 -0.09569262 87.07457777 -0.10492245 101.92962155 -0.10342209 C102.7300907 -0.10334218 103.53055985 -0.10326227 104.35528564 -0.10317993 C105.55746046 -0.10305729 105.55746046 -0.10305729 106.78392163 -0.10293217 C119.76808606 -0.10211953 132.75213441 -0.12125227 145.73626527 -0.14945666 C159.07743818 -0.17820726 172.41855452 -0.19199574 185.75975919 -0.19026911 C193.24612662 -0.18960592 200.73237238 -0.19506693 208.21871185 -0.21662521 C214.59367158 -0.23486578 220.96845449 -0.23916094 227.34342906 -0.22560637 C230.59337964 -0.21909081 233.8429221 -0.22109543 237.09285355 -0.23631287 C240.62323875 -0.25177059 244.15273904 -0.24245236 247.68310547 -0.22705078 C248.70044038 -0.23733791 249.71777528 -0.24762503 250.76593852 -0.25822389 C257.49829407 -0.19350172 263.14418844 1.01209462 269.09552002 4.26742554 C272.97267437 8.23914462 274.26463882 10.98380083 274.40802002 16.45492554 C274.33507332 22.0280531 273.57495347 24.89582966 270.09552002 29.26742554 C265.23287481 32.95671784 260.45528564 34.38957502 254.44301319 34.3988533 C253.50704927 34.40269445 252.57108535 34.40653559 251.60675889 34.41049314 C250.58177519 34.40962665 249.55679149 34.40876017 248.50074768 34.40786743 C247.40928804 34.41083855 246.3178284 34.41380968 245.19329423 34.41687083 C241.5230812 34.42556683 237.85290075 34.42706685 234.18267822 34.42855835 C231.55632965 34.4331859 228.92998175 34.43821047 226.30363464 34.44360352 C219.15886868 34.45718164 212.01410832 34.46321088 204.8693316 34.46761417 C200.40677983 34.47037775 195.94423022 34.47461534 191.48167992 34.47911835 C179.12269508 34.49131084 166.76371198 34.50160986 154.40472126 34.50499344 C153.21834835 34.50532279 153.21834835 34.50532279 152.00800831 34.50565879 C151.21521379 34.50587707 150.42241926 34.50609535 149.60560066 34.50632024 C147.99913172 34.5067637 146.39266278 34.50721027 144.78619385 34.50765991 C143.98933189 34.50788134 143.19246993 34.50810277 142.37146064 34.50833091 C129.46411559 34.51227756 116.55682704 34.52972759 103.6495038 34.55301943 C90.39315599 34.5767477 77.13683651 34.58919598 63.88046712 34.59036136 C56.43939238 34.59127734 48.99839124 34.59701028 41.55733681 34.61518097 C35.22002268 34.63060195 28.88280491 34.63569071 22.54547558 34.62744287 C19.31394935 34.62354324 16.08265705 34.62607313 12.8511467 34.63850021 C9.34233484 34.65120138 5.83401905 34.64535227 2.32521057 34.63491821 C1.31138048 34.64297462 0.29755039 34.65103102 -0.74700183 34.65933156 C-8.15218735 34.60791019 -14.45444865 33.44244529 -20.77947998 29.45492554 C-24.3245795 25.80555838 -26.05657827 22.34570788 -26.27947998 17.26742554 C-26.02633393 11.72985563 -24.04516568 8.38276267 -20.09197998 4.51742554 C-13.61992591 -0.05108322 -7.65083938 -0.02308992 0 0 Z " fill="#5DC4B1" transform="translate(1160.9044799804688,610.7325744628906)"/>
<path d="M0 0 C9.25029164 4.62514582 14.19739148 14.22898832 19.25 22.8125 C20.22972778 24.46233887 20.22972778 24.46233887 21.22924805 26.14550781 C25.16608049 32.80419059 29.0411284 39.49616616 32.8125 46.25 C33.21436523 46.96905518 33.61623047 47.68811035 34.03027344 48.42895508 C38.26679581 56.12505653 39.94592269 62.08467862 39 71 C37.72897096 75.05862684 35.50083783 77.55739913 32.3125 80.375 C26.82018055 83.06934539 22.28841766 83.63128763 16.375 82 C7.53083542 76.75901358 3.01442273 68.73775332 -2 60 C-2.74805908 58.70473389 -2.74805908 58.70473389 -3.51123047 57.38330078 C-23.84166103 22.09993231 -23.84166103 22.09993231 -23 12 C-21.09734418 6.18330934 -18.49593796 2.92337126 -13 0 C-8.55246867 -1.48251044 -4.55752375 -0.90579893 0 0 Z " fill="#5DC4B1" transform="translate(1047,1167)"/>
</svg>
